<?xml version="1.0" encoding="utf-8"?>
<!-- Generator: Adobe Illustrator 20.1.0, SVG Export Plug-In . SVG Version: 6.00 Build 0)  -->
<svg version="1.1" id="Layer_1" xmlns="http://www.w3.org/2000/svg" xmlns:xlink="http://www.w3.org/1999/xlink" x="0px" y="0px"
	 viewBox="0 0 331.8 173.7" style="enable-background:new 0 0 331.8 173.7;" xml:space="preserve">
<style type="text/css">
	.st0{fill:#F3E359;}
	.st1{fill:#30302F;}
	.st2{fill:#FFFFFF;}
	.st3{fill:#568183;}
</style>
<title>Artboard 1</title>
<path class="st0" d="M171.7,47.7c0-22-17.8-39.8-39.8-39.8c-22,0-38.6,14-38.6,36s16.6,43.6,38.6,43.6
	C153.8,87.5,171.7,69.7,171.7,47.7z"/>
<polygon class="st1" points="83.1,28.6 0,144.6 331.8,144.6 258.4,43.8 230.3,76 178.8,0 120.3,78.4 "/>
<polygon class="st2" points="81.7,38.3 49.2,82.8 75.1,60.6 83.6,82.8 89,60.6 103.7,66.3 "/>
<polygon class="st2" points="177.1,12 135.9,70.7 166.7,46.4 197,83.5 187.8,39.4 206.7,51.5 "/>
<polygon class="st2" points="257.2,55.1 234.9,80.4 257.2,72.6 270.9,80.4 273.8,72.6 "/>
<path class="st3" d="M74.2,83l-1.5,8.7c-1.9-0.9-4.9,2.6-6.6,2.9c-0.7,0.1-0.2-3.4-0.9-3.1c-0.8,0.4-1.5,0.9-2.1,1.5
	c-0.8,0.8-1.4,1.7-1.9,2.7c-0.7,1.3-1.1,2.7-1.5,4.2c-0.8,3.1-1.2,6.3-1.3,9.5c-0.1,2.7,0.1,5.5,0.7,8.2c0.4,2.1,1.3,4.2,2.5,6
	c1,1.5,2.4,2.6,4.1,3.2c0.7,0.2,1.4,0.3,2.1,0.1c0.6-0.2,1.1-0.5,1.5-1c0.4-0.5,0.8-1.1,1-1.8c0.3-0.7,0.5-1.5,0.6-2.2
	c0.4-2.1,0.6-4.2,0.5-6.4l-5.3-1.4v-8.7l18.8,1.3l-0.9,10.6l-5.3-0.7c0.5,3.4,0.5,6.8-0.2,10.2c-0.3,1.4-0.7,2.7-1.2,4
	c-0.6,1.3-1.3,2.5-2.3,3.6c-1,1.1-2.2,2.1-3.6,2.9c-1.6,0.9-3.3,1.5-5.1,1.8c-2.4,0.5-5,0.1-7.1-1.2c-2.2-1.4-4.1-3.2-5.4-5.4
	c-1.6-2.5-2.9-5.3-3.7-8.1c-1.9-6.1-2.7-12.5-2.4-18.8c0.1-2.6,0.5-5.3,1.3-7.8c2.2-6.6,5.4-11.1,9.6-13.7S68,81.1,74.2,83z"/>
<path class="st3" d="M102.8,82.8c1.8-0.2,3.7,0.3,5.1,1.5c1.7,1.5,3.1,3.3,3.9,5.4c1.2,2.8,2,5.7,2.4,8.6c0.5,3.7,0.7,7.4,0.5,11.1
	c-0.2,3.8-0.6,7.5-1.4,11.2c-0.6,3.1-1.6,6.2-2.8,9.1c-0.9,2.3-2.3,4.3-4,6.1c-1.3,1.4-3,2.2-4.9,2.2c-2.6,0.1-5.1-0.8-7.1-2.4
	c-2-1.7-3.6-3.9-4.5-6.4c-1.1-3-1.8-6.2-2-9.5c-0.2-3.8-0.2-7.7,0.3-11.5c1-8.2,2.7-14.4,5.1-18.6C95.8,85.5,98.9,83.2,102.8,82.8z
	 M107.4,110.4c0.1-1.9,0-3.9-0.3-5.8c-0.2-1.4-0.6-2.8-1.1-4.1c-0.4-0.9-0.9-1.7-1.6-2.3c-0.5-0.5-1.2-0.7-1.8-0.8
	c-1.1,0-2.2,0.5-2.9,1.3c-0.9,1.1-1.6,2.3-2.1,3.6c-0.6,1.7-1,3.4-1.3,5.2c-0.3,2-0.5,4.1-0.5,6.2c-0.1,1.8,0.1,3.7,0.5,5.5
	c0.3,1.3,0.8,2.6,1.4,3.8c0.5,0.8,1.1,1.5,1.8,2c0.5,0.4,1.2,0.5,1.8,0.4c0.7-0.2,1.4-0.7,1.8-1.3c0.8-0.9,1.4-2,1.9-3.1
	c0.7-1.5,1.2-3.1,1.6-4.7C107.1,114.4,107.4,112.4,107.4,110.4L107.4,110.4z"/>
<path class="st3" d="M144,119.6c0.2,3.1-0.3,6.2-1.3,9.1c-0.8,2.2-2.1,4.3-3.8,5.9c-1.6,1.5-3.5,2.6-5.6,3.3
	c-2.2,0.7-4.5,1.2-6.8,1.3c-1,0.1-2.1,0.1-3.1-0.2c-0.8-0.2-1.5-0.4-2.2-0.7c-0.6-0.3-1.2-0.7-1.7-1.1l0.1-34.8l-0.4-21.2
	c3.3-0.6,6.7-0.7,10-0.3c1.3,0.2,2.6,0.4,3.9,0.8c1.2,0.4,2.4,0.9,3.5,1.6c2.4,1.5,4,3.9,4.5,6.6c0.6,3,0.6,6.1-0.1,9.1
	c-0.6,2.6-1.8,5.1-3.5,7.2c0.8,0.5,1.6,1.1,2.4,1.8c0.8,0.8,1.5,1.7,2.1,2.7c0.7,1.2,1.2,2.4,1.6,3.8
	C143.8,116.1,144,117.8,144,119.6z M133.7,96.6c0.3-1.3,0.1-2.7-0.4-4c-0.4-0.9-1.2-1.7-2.1-2.2c-0.9-0.5-1.9-0.7-2.9-0.7
	c-0.9,0-1.9,0.1-2.8,0.3l0.7,13.6c0.7-0.2,1.5-0.4,2.2-0.7c0.8-0.3,1.6-0.7,2.3-1.3c0.8-0.5,1.5-1.2,2-2
	C133.3,98.7,133.6,97.7,133.7,96.6z M134.5,124.6c0.1-1.6,1.1-6.6,0.4-7.4c-0.7-0.8-1.5-1.5-2.5-1.9c-1-0.4-2.1-0.7-3.1-0.7
	c-0.9-0.1-1.8-0.1-2.7,0l0.6,13.8c1.4,0.1,2.9-0.2,4.2-0.7c1.1-0.5,2.1-1.2,2.9-2.2C135.1,124.3,134.4,126.6,134.5,124.6
	L134.5,124.6z"/>
<path class="st3" d="M156.8,83c0,1.2,0,2.7-0.1,4.5c0,1.5-0.1,3.4-0.1,5.7c0,2.3-0.1,4.9-0.1,8c0,1.6-0.1,3.3-0.1,5.1
	c0,1.8,0,3.7,0.1,5.7c0.1,1.9,0.1,3.9,0.2,5.9c0.1,2,0.1,3.9,0.2,5.7c0.1,4.3,0.3,8.6,0.6,13.1l-7.4,1l-1.5-53L156.8,83z"/>
<path class="st3" d="M183.6,82.2l3.7,40.3l6.8-22.9l5.3-1.5l3.8,21.3l3.2-15.6l4.1-22.1l9.6,0.6l-4,18l-8.3,38.8h-6.9l-4.4-23.7
	l-4.8,23.7h-6.8l-10.3-56.8H183.6z"/>
<path class="st3" d="M231.1,83c0,1.2,0,2.7-0.1,4.5c0,1.5-0.1,3.4-0.1,5.7c0,2.3-0.1,4.9-0.1,8c0,1.6-0.1,3.3-0.1,5.1
	c0,1.8,0,3.7,0.1,5.7c0.1,1.9,0.1,3.9,0.2,5.9c0.1,2,0.1,3.9,0.2,5.7c0.1,4.3,0.3,8.6,0.6,13.1l-7.4,1l-1.5-53L231.1,83z"/>
<path class="st3" d="M247.6,81.1c-0.2,1.7-0.4,3.7-0.5,5.9s-0.3,4.5-0.5,6.9c-0.1,2.4-0.3,4.9-0.4,7.4c-0.1,2.5-0.3,5-0.4,7.4
	c-0.3,5.6-0.5,11.4-0.8,17.4l10.2-1.2v14.8l-16.6-0.4l-0.9-56.2L247.6,81.1z"/>
<path class="st3" d="M260.1,81.4c3,0.1,6,0.5,8.9,1.2c2.8,0.7,5.4,2.1,7.5,4c2.4,2.3,4.1,5.2,5.1,8.4c1.2,3.6,1.8,8.4,1.7,14.3
	c0,2.7-0.4,5.4-1,8.1c-0.5,2.3-1.2,4.5-2.2,6.6c-0.8,1.8-1.8,3.5-3,5.1c-1,1.4-2.1,2.7-3.3,3.9c-2.6,2.5-5.7,4.6-9.1,5.9h-3.9
	L260.1,81.4z M275.7,106.8c0.1-1.6,0-3.2-0.4-4.7c-0.3-1.1-0.7-2.2-1.3-3.2c-0.4-0.8-1-1.5-1.8-2c-0.6-0.4-1.2-0.8-1.9-1
	c-0.5-0.2-1.1-0.3-1.7-0.3c-0.3,0-0.7,0-1,0.1v25c1.5-0.6,2.8-1.6,3.9-2.8c1.1-1.3,2.1-2.7,2.7-4.2
	C275.2,111.4,275.6,109.1,275.7,106.8z"/>
<path class="st2" d="M55.5,168.3c0,0.2-0.1,0.4-0.2,0.6c-0.1,0.1-0.2,0.3-0.3,0.3c-0.2,0.1-0.4,0.1-0.5,0.1c-0.3,0-0.6,0-0.8,0
	c-0.3,0-0.6,0-0.9,0c-0.2,0-0.4-0.1-0.5-0.1c-0.1-0.1-0.2-0.2-0.3-0.3c-0.1-0.2-0.1-0.4-0.1-0.6l-2.1-12.2l0,0l-2,12.2
	c0,0.2-0.1,0.4-0.1,0.6c-0.1,0.1-0.2,0.3-0.3,0.3c-0.2,0.1-0.3,0.1-0.5,0.2c-0.3,0-0.6,0-0.9,0c-0.3,0-0.6,0-0.9,0
	c-0.2,0-0.4-0.1-0.5-0.1c-0.1-0.1-0.2-0.2-0.3-0.3c-0.1-0.2-0.1-0.4-0.2-0.6l-2.9-16.8c-0.1-0.3-0.1-0.6-0.1-0.8
	c0-0.2,0-0.3,0.1-0.5c0.1-0.1,0.3-0.2,0.4-0.2c0.3,0,0.5,0,0.8,0h0.7c0.1,0,0.3,0,0.4,0.1c0.1,0.1,0.2,0.1,0.2,0.2
	c0,0.1,0.1,0.3,0.1,0.4l2.2,14.7l0,0l2.3-14.6c0-0.2,0.1-0.3,0.1-0.5c0-0.1,0.1-0.2,0.2-0.3c0.1-0.1,0.3-0.1,0.4-0.1
	c0.2,0,0.5,0,0.7,0c0.3,0,0.6,0,0.8,0c0.2,0,0.3,0.1,0.4,0.1c0.1,0.1,0.2,0.2,0.2,0.3c0.1,0.2,0.1,0.3,0.1,0.5l2.4,14.6l0,0
	l2.3-14.7c0-0.1,0-0.3,0.1-0.4c0-0.1,0.1-0.2,0.2-0.3c0.1-0.1,0.3-0.1,0.4-0.1c0.2,0,0.5,0,0.7,0c0.2,0,0.5,0,0.7,0
	c0.1,0,0.3,0.1,0.3,0.2c0.1,0.1,0.1,0.3,0.1,0.5c0,0.3-0.1,0.6-0.1,0.9L55.5,168.3z"/>
<path class="st2" d="M62.7,168.8c0,0.1,0,0.2-0.1,0.3c0,0.1-0.1,0.1-0.2,0.2c-0.1,0.1-0.3,0.1-0.4,0.1c-0.4,0.1-0.8,0.1-1.3,0
	c-0.1,0-0.3-0.1-0.4-0.1c-0.1,0-0.2-0.1-0.2-0.2c0-0.1-0.1-0.2-0.1-0.3v-18.1c0-0.1,0-0.2,0.1-0.3c0.1-0.1,0.1-0.2,0.2-0.2
	c0.1-0.1,0.3-0.1,0.4-0.1c0.2,0,0.4,0,0.6,0c0.2,0,0.4,0,0.6,0c0.1,0,0.3,0.1,0.4,0.1c0.1,0,0.2,0.1,0.2,0.2c0,0.1,0.1,0.2,0.1,0.3
	L62.7,168.8z"/>
<path class="st2" d="M72.3,167.7c0,0.3,0,0.6,0,0.8c0,0.2,0,0.3-0.1,0.5c0,0.1-0.1,0.2-0.1,0.3c0,0.1-0.1,0.1-0.2,0.1H66
	c-0.2,0-0.4-0.1-0.6-0.3c-0.2-0.3-0.2-0.6-0.2-0.9v-17.4c0-0.1,0-0.2,0.1-0.3c0-0.1,0.1-0.1,0.2-0.2c0.1-0.1,0.3-0.1,0.4-0.1
	c0.4-0.1,0.8-0.1,1.3,0c0.1,0,0.3,0.1,0.4,0.1c0.1,0,0.2,0.1,0.2,0.2c0,0.1,0.1,0.2,0.1,0.3v15.4h4c0.1,0,0.1,0,0.2,0.1
	c0.1,0.1,0.1,0.2,0.1,0.3c0,0.2,0.1,0.3,0.1,0.5C72.2,167.2,72.3,167.4,72.3,167.7z"/>
<path class="st2" d="M84.1,159.4c0,1.5-0.1,3-0.5,4.5c-0.2,1.1-0.7,2.1-1.3,3c-0.5,0.8-1.3,1.4-2.1,1.7c-0.9,0.4-1.9,0.6-2.9,0.6
	h-3.1c-0.2,0-0.4-0.1-0.6-0.3c-0.2-0.3-0.2-0.6-0.2-0.9v-16.7c0-0.3,0-0.7,0.2-0.9c0.1-0.2,0.3-0.3,0.6-0.3h3.3c1,0,2,0.2,2.9,0.6
	c0.8,0.4,1.5,1,2,1.8c0.6,0.9,1,1.9,1.3,2.9C84,156.7,84.1,158.1,84.1,159.4z M81.4,159.6c0-0.9-0.1-1.7-0.2-2.5
	c-0.1-0.7-0.4-1.4-0.7-2c-0.3-0.5-0.7-1-1.2-1.3c-0.6-0.3-1.3-0.5-1.9-0.5H76v13.1h1.4c0.6,0,1.3-0.1,1.8-0.4
	c0.5-0.3,0.9-0.7,1.2-1.3c0.4-0.6,0.6-1.4,0.7-2.1C81.3,161.6,81.4,160.6,81.4,159.6L81.4,159.6z"/>
<path class="st2" d="M93.6,167.8c0,0.3,0,0.5,0,0.7c0,0.2,0,0.3-0.1,0.5c0,0.1-0.1,0.2-0.1,0.3c0,0-0.1,0.1-0.2,0.1h-6.5
	c-0.2,0-0.4-0.1-0.6-0.3c-0.2-0.3-0.2-0.6-0.2-0.9v-16.7c0-0.3,0-0.7,0.2-0.9c0.1-0.2,0.3-0.3,0.6-0.3h6.4c0.1,0,0.1,0,0.2,0.1
	c0.1,0.1,0.1,0.2,0.1,0.3c0,0.2,0.1,0.3,0.1,0.5c0,0.2,0,0.4,0,0.7s0,0.5,0,0.7c0,0.2,0,0.3-0.1,0.5c0,0.1-0.1,0.2-0.1,0.3
	c0,0.1-0.1,0.1-0.2,0.1h-4.6v4.7h3.9c0.1,0,0.1,0,0.2,0.1c0.1,0.1,0.1,0.2,0.1,0.3c0,0.2,0.1,0.3,0.1,0.5c0,0.2,0,0.4,0,0.7
	c0,0.3,0,0.5,0,0.7c0,0.2,0,0.3-0.1,0.4c0,0.1-0.1,0.2-0.1,0.2c0,0-0.1,0.1-0.2,0.1h-3.9v5.4h4.6c0.1,0,0.1,0,0.2,0.1
	c0.1,0.1,0.1,0.2,0.1,0.3c0,0.2,0.1,0.3,0.1,0.5C93.5,167.3,93.6,167.5,93.6,167.8z"/>
<path class="st2" d="M105.1,168.8c0,0.1,0,0.2,0,0.3c0,0.1-0.1,0.2-0.2,0.2c-0.1,0.1-0.3,0.1-0.4,0.1c-0.2,0-0.5,0-0.8,0
	c-0.2,0-0.4,0-0.7,0c-0.1,0-0.3,0-0.4-0.1c-0.1,0-0.2-0.1-0.2-0.2c0-0.1-0.1-0.2-0.1-0.3l-1.2-4.3c-0.1-0.5-0.3-0.9-0.4-1.3
	c-0.1-0.3-0.3-0.6-0.4-0.9c-0.1-0.2-0.3-0.4-0.6-0.6c-0.2-0.1-0.5-0.2-0.7-0.2h-0.8v7.3c0,0.1,0,0.2-0.1,0.3c0,0.1-0.1,0.1-0.2,0.2
	c-0.1,0.1-0.3,0.1-0.4,0.1c-0.4,0.1-0.8,0.1-1.3,0c-0.1,0-0.3-0.1-0.4-0.1c-0.1,0-0.2-0.1-0.2-0.2c0-0.1-0.1-0.2-0.1-0.3v-17.4
	c0-0.3,0-0.7,0.2-0.9c0.1-0.2,0.3-0.3,0.6-0.3h3.3c0.3,0,0.6,0,0.8,0l0.6,0.1c0.5,0.1,1,0.3,1.4,0.6c0.4,0.3,0.8,0.6,1.1,1
	c0.3,0.5,0.5,1,0.7,1.5c0.2,0.7,0.2,1.3,0.2,2c0,0.6,0,1.2-0.2,1.8c-0.1,0.5-0.3,1-0.5,1.4c-0.2,0.4-0.5,0.8-0.8,1.1
	c-0.3,0.3-0.7,0.6-1.1,0.7c0.2,0.1,0.4,0.3,0.5,0.5c0.2,0.2,0.3,0.5,0.5,0.7c0.2,0.3,0.3,0.7,0.4,1c0.1,0.4,0.3,0.8,0.4,1.2l1.1,3.8
	c0.1,0.4,0.2,0.6,0.2,0.8C105.1,168.5,105.1,168.7,105.1,168.8z M101.7,155.8c0-0.5-0.1-1.1-0.3-1.6c-0.2-0.4-0.5-0.8-0.9-0.9
	c-0.1-0.1-0.3-0.1-0.4-0.1c-0.2,0-0.5,0-0.7,0h-1.2v5.4h1.3c0.3,0,0.7-0.1,1-0.2c0.3-0.1,0.5-0.3,0.7-0.6c0.2-0.3,0.3-0.6,0.4-0.9
	C101.7,156.6,101.7,156.2,101.7,155.8L101.7,155.8z"/>
<path class="st2" d="M117.2,168c0,0.2,0,0.4-0.1,0.6c0,0.2-0.1,0.3-0.2,0.4c-0.1,0.1-0.2,0.2-0.3,0.3c-0.1,0.1-0.2,0.1-0.4,0.1h-1.1
	c-0.2,0-0.4,0-0.6-0.1c-0.2-0.1-0.3-0.2-0.5-0.4c-0.2-0.2-0.3-0.5-0.4-0.7c-0.1-0.3-0.3-0.7-0.4-1.2l-3.2-9
	c-0.2-0.5-0.4-1.1-0.6-1.7s-0.4-1.2-0.5-1.8l0,0c0,0.7,0,1.4,0.1,2.1c0,0.7,0,1.4,0,2.2v10c0,0.1,0,0.2-0.1,0.3
	c0,0.1-0.1,0.2-0.2,0.2c-0.1,0.1-0.2,0.1-0.4,0.1c-0.2,0-0.4,0-0.6,0c-0.2,0-0.4,0-0.6,0c-0.1,0-0.2-0.1-0.4-0.1
	c-0.1,0-0.1-0.1-0.2-0.2c0-0.1-0.1-0.2-0.1-0.3v-17.2c0-0.4,0.1-0.7,0.3-1c0.2-0.2,0.4-0.3,0.7-0.4h1.4c0.2,0,0.4,0,0.6,0.1
	c0.2,0.1,0.3,0.2,0.5,0.3c0.2,0.2,0.3,0.4,0.4,0.6c0.1,0.3,0.3,0.7,0.4,1l2.5,7l0.4,1.3c0.1,0.4,0.3,0.8,0.4,1.2l0.4,1.2
	c0.1,0.4,0.3,0.8,0.4,1.2l0,0c0-0.7,0-1.4,0-2.2s0-1.5,0-2.1v-9c0-0.1,0-0.2,0.1-0.3c0-0.1,0.1-0.2,0.2-0.2c0.1-0.1,0.2-0.1,0.4-0.1
	c0.2,0,0.4,0,0.6,0c0.2,0,0.4,0,0.6,0c0.1,0,0.2,0.1,0.3,0.1c0.1,0.1,0.1,0.1,0.2,0.2c0,0.1,0.1,0.2,0.1,0.3L117.2,168z"/>
<path class="st2" d="M127.3,167.8c0,0.3,0,0.5,0,0.7c0,0.2,0,0.3-0.1,0.5c0,0.1-0.1,0.2-0.1,0.3c0,0-0.1,0.1-0.2,0.1h-6.5
	c-0.2,0-0.4-0.1-0.6-0.3c-0.2-0.3-0.2-0.6-0.2-0.9v-16.7c0-0.3,0-0.7,0.2-0.9c0.1-0.2,0.3-0.3,0.6-0.3h6.4c0.1,0,0.1,0,0.2,0.1
	c0.1,0.1,0.1,0.2,0.1,0.3c0,0.2,0.1,0.3,0.1,0.5c0,0.2,0,0.4,0,0.7s0,0.5,0,0.7c0,0.2,0,0.3-0.1,0.5c0,0.1-0.1,0.2-0.1,0.3
	c0,0.1-0.1,0.1-0.2,0.1h-4.6v4.7h3.9c0.1,0,0.1,0,0.2,0.1c0.1,0.1,0.1,0.2,0.1,0.3c0,0.2,0.1,0.3,0.1,0.5c0,0.2,0,0.4,0,0.7
	c0,0.3,0,0.5,0,0.7c0,0.2,0,0.3-0.1,0.4c0,0.1-0.1,0.2-0.1,0.2c0,0-0.1,0.1-0.2,0.1h-3.9v5.4h4.6c0.1,0,0.1,0,0.2,0.1
	c0.1,0.1,0.1,0.2,0.1,0.3c0,0.2,0.1,0.3,0.1,0.5C127.3,167.3,127.3,167.5,127.3,167.8z"/>
<path class="st2" d="M136.9,163.6c0,0.9-0.1,1.8-0.4,2.7c-0.2,0.7-0.5,1.3-1,1.9c-0.4,0.5-0.9,0.9-1.5,1.1c-1,0.4-2.1,0.5-3.1,0.2
	c-0.3-0.1-0.7-0.2-1-0.4c-0.3-0.1-0.5-0.3-0.7-0.5c-0.2-0.1-0.3-0.3-0.4-0.4c-0.1-0.2-0.2-0.4-0.2-0.6c0-0.3-0.1-0.7-0.1-1
	c0-0.3,0-0.6,0-0.8c0-0.2,0-0.3,0.1-0.5c0-0.1,0.1-0.2,0.1-0.3c0,0,0.1-0.1,0.2-0.1c0.1,0,0.2,0.1,0.4,0.2c0.2,0.2,0.4,0.4,0.7,0.5
	c0.3,0.2,0.6,0.4,0.9,0.5c0.4,0.2,0.8,0.3,1.3,0.2c0.3,0,0.6-0.1,0.9-0.2c0.2-0.1,0.5-0.3,0.6-0.5c0.2-0.2,0.3-0.5,0.4-0.8
	c0.1-0.3,0.1-0.7,0.1-1c0-0.4-0.1-0.8-0.2-1.1c-0.2-0.3-0.4-0.6-0.6-0.8c-0.3-0.3-0.6-0.5-0.9-0.7l-1-0.7c-0.4-0.2-0.7-0.5-1-0.8
	c-0.3-0.3-0.6-0.7-0.9-1.1c-0.3-0.5-0.5-1-0.6-1.5c-0.4-1.5-0.3-3,0.1-4.5c0.2-0.6,0.5-1.2,0.9-1.7c0.4-0.4,0.8-0.8,1.4-1
	c0.5-0.2,1.1-0.3,1.7-0.3c0.3,0,0.6,0,0.9,0.1c0.3,0.1,0.6,0.2,0.9,0.3c0.2,0.1,0.5,0.2,0.7,0.4c0.2,0.1,0.3,0.2,0.4,0.4
	c0.1,0.1,0.1,0.2,0.1,0.3c0,0.1,0,0.2,0.1,0.3c0,0.1,0,0.3,0,0.4c0,0.2,0,0.4,0,0.6s0,0.5,0,0.7c0,0.2,0,0.3-0.1,0.5
	c0,0.1,0,0.2-0.1,0.3c0,0.1-0.1,0.1-0.2,0.1c-0.1,0-0.3-0.1-0.4-0.2c-0.2-0.2-0.4-0.3-0.6-0.4c-0.3-0.2-0.5-0.3-0.8-0.4
	c-0.3-0.1-0.7-0.2-1-0.2c-0.3,0-0.5,0-0.8,0.2c-0.2,0.1-0.4,0.2-0.5,0.4c-0.1,0.2-0.3,0.4-0.3,0.7c-0.1,0.3-0.1,0.5-0.1,0.8
	c0,0.4,0.1,0.8,0.2,1.1c0.2,0.3,0.4,0.6,0.6,0.8c0.3,0.3,0.6,0.5,0.9,0.7l1,0.7c0.4,0.2,0.7,0.5,1,0.8c0.3,0.3,0.6,0.7,0.9,1.1
	c0.3,0.5,0.5,1,0.6,1.5C136.8,162.3,136.9,162.9,136.9,163.6z"/>
<path class="st2" d="M146.2,163.6c0,0.9-0.1,1.8-0.4,2.7c-0.2,0.7-0.5,1.3-1,1.9c-0.4,0.5-0.9,0.9-1.5,1.1c-1,0.4-2.1,0.5-3.1,0.2
	c-0.3-0.1-0.7-0.2-1-0.4c-0.3-0.1-0.5-0.3-0.7-0.5c-0.2-0.1-0.3-0.3-0.4-0.4c-0.1-0.2-0.2-0.4-0.2-0.6c0-0.3-0.1-0.7-0.1-1
	c0-0.3,0-0.6,0-0.8c0-0.2,0-0.3,0.1-0.5c0-0.1,0-0.3,0.1-0.4c0,0,0.1-0.1,0.2-0.1c0.1,0,0.2,0.1,0.4,0.2c0.2,0.2,0.4,0.4,0.6,0.5
	c0.3,0.2,0.6,0.4,0.9,0.5c0.4,0.2,0.8,0.3,1.3,0.2c0.3,0,0.6-0.1,0.9-0.2c0.2-0.1,0.5-0.3,0.6-0.5c0.2-0.2,0.3-0.5,0.4-0.8
	c0.1-0.3,0.1-0.7,0.1-1c0-0.4-0.1-0.8-0.2-1.1c-0.2-0.3-0.4-0.6-0.6-0.8c-0.3-0.3-0.6-0.5-0.9-0.7l-1-0.7c-0.4-0.2-0.7-0.5-1-0.8
	c-0.3-0.3-0.6-0.7-0.9-1.1c-0.3-0.5-0.5-1-0.6-1.5c-0.4-1.5-0.3-3,0.1-4.5c0.2-0.6,0.5-1.2,0.9-1.7c0.4-0.4,0.8-0.8,1.4-1
	c0.5-0.2,1.1-0.3,1.7-0.3c0.3,0,0.6,0,0.9,0.1c0.3,0.1,0.6,0.2,0.9,0.3c0.2,0.1,0.5,0.2,0.7,0.4c0.2,0.1,0.3,0.2,0.4,0.4
	c0.1,0.1,0.1,0.2,0.1,0.3c0,0.1,0,0.2,0.1,0.3c0,0.1,0,0.3,0,0.4c0,0.2,0,0.4,0,0.6s0,0.5,0,0.7c0,0.2,0,0.3-0.1,0.5
	c0,0.1,0,0.2-0.1,0.3c0,0.1-0.1,0.1-0.2,0.1c-0.1,0-0.3-0.1-0.4-0.2c-0.2-0.2-0.4-0.3-0.6-0.4c-0.3-0.2-0.5-0.3-0.8-0.4
	c-0.3-0.1-0.7-0.2-1-0.2c-0.3,0-0.5,0-0.8,0.2c-0.2,0.1-0.4,0.2-0.5,0.4c-0.1,0.2-0.3,0.4-0.3,0.7c-0.1,0.3-0.1,0.5-0.1,0.8
	c0,0.4,0.1,0.8,0.2,1.1c0.2,0.3,0.4,0.6,0.6,0.8c0.3,0.3,0.6,0.5,0.9,0.7l1,0.7c0.4,0.2,0.7,0.5,1,0.8c0.3,0.3,0.6,0.7,0.9,1.1
	c0.3,0.5,0.5,1,0.6,1.5C146.1,162.2,146.2,162.9,146.2,163.6z"/>
<path class="st2" d="M161,166.4c0,0.2,0,0.5,0,0.6c0,0.1,0,0.3,0,0.4c0,0.1,0,0.2-0.1,0.3c0,0.1-0.1,0.2-0.2,0.3
	c-0.1,0.2-0.3,0.3-0.4,0.4c-0.2,0.2-0.5,0.4-0.8,0.5c-0.3,0.2-0.7,0.3-1,0.4c-0.4,0.1-0.8,0.2-1.3,0.2c-0.8,0-1.7-0.2-2.4-0.6
	c-0.7-0.4-1.4-1.1-1.8-1.8c-0.5-0.9-0.9-1.9-1.1-3c-0.3-1.4-0.4-2.8-0.4-4.2c0-1.5,0.1-2.9,0.4-4.4c0.2-1.1,0.6-2.2,1.2-3.2
	c0.5-0.8,1.1-1.5,1.9-2c0.7-0.4,1.6-0.7,2.4-0.7c0.3,0,0.7,0,1,0.1c0.3,0.1,0.6,0.2,0.9,0.4c0.3,0.1,0.5,0.3,0.8,0.5
	c0.2,0.1,0.3,0.3,0.5,0.5c0.1,0.1,0.1,0.2,0.2,0.3c0,0.1,0.1,0.2,0.1,0.3c0,0.1,0,0.3,0,0.5s0,0.4,0,0.7c0,0.3,0,0.6,0,0.8
	c0,0.2,0,0.3-0.1,0.5c0,0.1-0.1,0.2-0.1,0.3c0,0.1-0.1,0.1-0.2,0.1c-0.1,0-0.2-0.1-0.4-0.3c-0.2-0.2-0.4-0.4-0.6-0.6
	c-0.3-0.2-0.6-0.4-0.9-0.6c-0.4-0.2-0.8-0.3-1.2-0.3c-0.5,0-1,0.2-1.4,0.5c-0.4,0.4-0.8,0.8-1,1.3c-0.3,0.7-0.5,1.4-0.6,2.1
	c-0.3,1.9-0.3,3.8,0,5.7c0.1,0.7,0.3,1.4,0.7,2c0.2,0.5,0.6,0.9,1,1.2c0.4,0.3,0.9,0.4,1.4,0.4c0.4,0,0.8-0.1,1.2-0.2
	c0.3-0.1,0.6-0.3,0.9-0.5c0.2-0.2,0.4-0.3,0.6-0.5c0.2-0.2,0.3-0.2,0.4-0.2c0.1,0,0.1,0,0.2,0.1c0.1,0.1,0.1,0.2,0.1,0.2
	c0,0.2,0.1,0.3,0.1,0.5C161,165.8,161,166.1,161,166.4z"/>
<path class="st2" d="M173,167.9c0.1,0.3,0.1,0.6,0.1,0.9c0,0.2,0,0.3-0.1,0.5c-0.1,0.1-0.2,0.2-0.4,0.2c-0.3,0-0.5,0-0.8,0h-0.8
	c-0.1,0-0.3,0-0.4-0.1c-0.1,0-0.2-0.1-0.2-0.2c0-0.1-0.1-0.2-0.1-0.3l-0.9-3.9h-4.8l-0.8,3.8c0,0.1-0.1,0.2-0.1,0.4
	c0,0.1-0.1,0.2-0.2,0.2c-0.1,0.1-0.3,0.1-0.4,0.1c-0.2,0-0.5,0-0.7,0c-0.2,0-0.5,0-0.7,0c-0.1,0-0.3-0.1-0.4-0.2
	c-0.1-0.1-0.1-0.3-0.1-0.5c0-0.3,0.1-0.6,0.1-0.8l4-17c0-0.1,0.1-0.3,0.1-0.4c0.1-0.1,0.1-0.2,0.3-0.2c0.2-0.1,0.3-0.1,0.5-0.1h0.8
	h0.9c0.2,0,0.4,0,0.5,0.1c0.1,0,0.2,0.1,0.3,0.2c0.1,0.1,0.1,0.3,0.1,0.4L173,167.9z M167.1,153.8L167.1,153.8l-1.8,8.2h3.7
	L167.1,153.8z"/>
<path class="st2" d="M189.5,168.8c0,0.1,0,0.2-0.1,0.3c0,0.1-0.1,0.2-0.2,0.2c-0.1,0.1-0.2,0.1-0.4,0.1c-0.2,0-0.4,0-0.6,0
	c-0.2,0-0.4,0-0.6,0c-0.1,0-0.3-0.1-0.4-0.1c-0.1,0-0.2-0.1-0.2-0.2c0-0.1-0.1-0.2-0.1-0.3v-15.6l0,0l-3.7,15.6
	c0,0.1-0.1,0.2-0.1,0.3c-0.1,0.1-0.1,0.2-0.2,0.2c-0.1,0.1-0.3,0.1-0.4,0.1h-0.6c-0.2,0-0.4,0-0.6,0c-0.1,0-0.3-0.1-0.4-0.1
	c-0.1,0-0.2-0.1-0.2-0.2c-0.1-0.1-0.1-0.2-0.1-0.3l-3.6-15.6l0,0v15.6c0,0.1,0,0.2-0.1,0.3c0,0.1-0.1,0.2-0.2,0.2
	c-0.1,0.1-0.2,0.1-0.4,0.1c-0.4,0.1-0.8,0.1-1.2,0c-0.1,0-0.3-0.1-0.4-0.1c-0.1,0-0.2-0.1-0.2-0.2c0-0.1-0.1-0.2-0.1-0.3v-17.1
	c0-0.4,0.1-0.8,0.3-1.2c0.2-0.3,0.4-0.4,0.7-0.4h1.7c0.3,0,0.5,0,0.8,0.1c0.2,0.1,0.4,0.2,0.6,0.4c0.2,0.2,0.3,0.4,0.4,0.7
	c0.1,0.3,0.2,0.7,0.3,1l2.7,11.5l0,0l2.9-11.4c0.1-0.4,0.2-0.7,0.3-1.1c0.1-0.3,0.2-0.5,0.4-0.7c0.1-0.2,0.3-0.3,0.5-0.4
	c0.2-0.1,0.4-0.1,0.6-0.1h1.8c0.2,0,0.3,0,0.5,0.1c0.1,0.1,0.2,0.2,0.3,0.3c0.1,0.2,0.2,0.3,0.2,0.5c0,0.2,0.1,0.4,0.1,0.7
	L189.5,168.8z"/>
<path class="st2" d="M200.8,156c0,1-0.1,1.9-0.3,2.9c-0.2,0.8-0.5,1.5-1,2.1c-0.4,0.6-1,1-1.6,1.3c-0.7,0.3-1.4,0.5-2.2,0.4h-1.1
	v6.1c0,0.1,0,0.2-0.1,0.3c0,0.1-0.1,0.1-0.2,0.2c-0.1,0.1-0.3,0.1-0.4,0.1c-0.4,0.1-0.8,0.1-1.3,0c-0.1,0-0.3-0.1-0.4-0.1
	c-0.1,0-0.2-0.1-0.2-0.2c0-0.1-0.1-0.2-0.1-0.3v-17.3c0-0.3,0.1-0.7,0.2-1c0.1-0.2,0.4-0.4,0.6-0.4h3c0.3,0,0.6,0,0.9,0.1
	c0.3,0,0.7,0.1,1,0.2c0.4,0.1,0.8,0.3,1.2,0.6c0.4,0.3,0.7,0.7,1,1.2c0.3,0.5,0.5,1.1,0.6,1.6C200.7,154.6,200.7,155.3,200.8,156z
	 M198,156.3c0-0.6-0.1-1.1-0.2-1.7c-0.1-0.4-0.3-0.7-0.6-1c-0.2-0.2-0.5-0.3-0.7-0.4c-0.3-0.1-0.5-0.1-0.8-0.1h-1.1v6.5h1.2
	c0.3,0,0.7-0.1,1-0.3c0.3-0.2,0.5-0.4,0.7-0.7c0.2-0.3,0.3-0.7,0.4-1.1C197.9,157.2,198,156.7,198,156.3L198,156.3z"/>
<path class="st2" d="M210.1,163.6c0,0.9-0.1,1.8-0.4,2.7c-0.2,0.7-0.5,1.3-1,1.9c-0.4,0.5-0.9,0.9-1.5,1.1c-1,0.4-2.1,0.5-3.1,0.2
	c-0.3-0.1-0.7-0.2-1-0.4c-0.3-0.1-0.5-0.3-0.7-0.5c-0.2-0.1-0.3-0.3-0.4-0.4c-0.1-0.2-0.2-0.4-0.2-0.6c0-0.3-0.1-0.7-0.1-1
	c0-0.3,0-0.6,0-0.8c0-0.2,0-0.3,0.1-0.5c0-0.1,0.1-0.2,0.1-0.3c0,0,0.1-0.1,0.1-0.1c0.1,0,0.2,0.1,0.4,0.2c0.2,0.2,0.4,0.4,0.6,0.5
	c0.3,0.2,0.6,0.4,0.9,0.5c0.4,0.2,0.8,0.3,1.3,0.2c0.3,0,0.6-0.1,0.9-0.2c0.2-0.1,0.5-0.3,0.6-0.5c0.2-0.2,0.3-0.5,0.4-0.8
	c0.1-0.3,0.1-0.7,0.1-1c0-0.4-0.1-0.8-0.2-1.1c-0.2-0.3-0.4-0.6-0.6-0.8c-0.3-0.3-0.6-0.5-0.9-0.7l-1-0.7c-0.4-0.2-0.7-0.5-1-0.8
	c-0.3-0.3-0.6-0.7-0.9-1.1c-0.3-0.5-0.5-1-0.6-1.5c-0.3-1.5-0.3-3,0.1-4.5c0.2-0.6,0.5-1.2,0.9-1.7c0.4-0.4,0.8-0.8,1.4-1
	c0.5-0.2,1.1-0.3,1.7-0.3c0.3,0,0.6,0,0.9,0.1c0.3,0.1,0.6,0.2,0.9,0.3c0.2,0.1,0.5,0.2,0.7,0.4c0.2,0.1,0.3,0.2,0.4,0.4
	c0.1,0.1,0.1,0.2,0.1,0.3c0,0.1,0,0.2,0.1,0.3c0,0.1,0,0.3,0,0.4c0,0.2,0,0.4,0,0.6s0,0.5,0,0.7c0,0.2,0,0.3,0,0.5
	c0,0.1,0,0.2-0.1,0.3c0,0.1-0.1,0.1-0.2,0.1c-0.1,0-0.3-0.1-0.4-0.2c-0.2-0.2-0.4-0.3-0.6-0.4c-0.3-0.2-0.5-0.3-0.8-0.4
	c-0.3-0.1-0.7-0.2-1-0.2c-0.3,0-0.5,0-0.8,0.2c-0.2,0.1-0.4,0.2-0.5,0.4c-0.1,0.2-0.3,0.4-0.3,0.7c-0.1,0.3-0.1,0.5-0.1,0.8
	c0,0.4,0.1,0.8,0.2,1.1c0.2,0.3,0.4,0.6,0.6,0.8c0.3,0.3,0.6,0.5,0.9,0.7l1,0.7c0.4,0.2,0.7,0.5,1,0.8c0.3,0.3,0.6,0.7,0.9,1.1
	c0.3,0.5,0.5,1,0.6,1.5C210,162.3,210,162.9,210.1,163.6z"/>
<path class="st2" d="M225.4,163.6c0,0.6-0.1,1.2-0.2,1.9c-0.1,0.5-0.3,1-0.5,1.5c-0.2,0.4-0.5,0.8-0.8,1.1c-0.3,0.3-0.6,0.6-1,0.8
	c-0.4,0.2-0.8,0.3-1.2,0.4c-0.5,0.1-0.9,0.1-1.4,0.1h-3.4c-0.2,0-0.4-0.1-0.6-0.3c-0.2-0.3-0.2-0.6-0.2-0.9v-16.7
	c0-0.3,0-0.7,0.2-0.9c0.1-0.2,0.3-0.3,0.6-0.3h3.2c0.7,0,1.4,0.1,2,0.3c0.5,0.2,1,0.5,1.4,0.9c0.4,0.4,0.7,1,0.9,1.5
	c0.2,0.7,0.3,1.4,0.3,2.2c0,0.4,0,0.9-0.1,1.3c-0.1,0.4-0.2,0.8-0.4,1.1c-0.1,0.3-0.3,0.6-0.6,0.9c-0.2,0.2-0.5,0.5-0.8,0.6
	c0.4,0.1,0.7,0.3,1,0.5c0.3,0.3,0.6,0.6,0.8,1c0.2,0.4,0.4,0.9,0.5,1.4C225.3,162.4,225.4,163,225.4,163.6z M222,155.5
	c0-0.3,0-0.7-0.1-1c-0.1-0.3-0.2-0.5-0.4-0.8c-0.2-0.2-0.4-0.4-0.6-0.5c-0.3-0.1-0.7-0.2-1-0.2h-1.3v5h1.5c0.3,0,0.6-0.1,0.9-0.2
	c0.2-0.1,0.4-0.3,0.6-0.6c0.2-0.3,0.3-0.5,0.3-0.8C221.9,156.2,222,155.8,222,155.5z M222.7,163.7c0-0.4,0-0.8-0.1-1.2
	c-0.1-0.3-0.2-0.6-0.4-0.9c-0.2-0.2-0.5-0.4-0.7-0.6c-0.4-0.1-0.8-0.2-1.2-0.2h-1.6v5.5h1.9c0.3,0,0.6,0,0.9-0.2
	c0.3-0.1,0.5-0.3,0.6-0.5c0.2-0.2,0.3-0.5,0.4-0.8C222.6,164.5,222.7,164.1,222.7,163.7L222.7,163.7z"/>
<path class="st2" d="M234.7,167.8c0,0.3,0,0.5,0,0.7c0,0.2,0,0.3-0.1,0.5c0,0.1-0.1,0.2-0.1,0.3c0,0-0.1,0.1-0.2,0.1h-6.5
	c-0.2,0-0.4-0.1-0.6-0.3c-0.2-0.3-0.2-0.6-0.2-0.9v-16.7c0-0.3,0-0.7,0.2-0.9c0.1-0.2,0.3-0.3,0.6-0.3h6.4c0.1,0,0.1,0,0.2,0.1
	c0.1,0.1,0.1,0.2,0.1,0.3c0,0.2,0.1,0.3,0.1,0.5c0,0.2,0,0.4,0,0.7s0,0.5,0,0.7c0,0.2,0,0.3-0.1,0.5c0,0.1-0.1,0.2-0.1,0.3
	c0,0.1-0.1,0.1-0.2,0.1h-4.6v4.7h3.9c0.1,0,0.1,0,0.2,0.1c0.1,0.1,0.1,0.2,0.1,0.3c0,0.2,0.1,0.3,0.1,0.5c0,0.2,0,0.4,0,0.7
	s0,0.5,0,0.7c0,0.2,0,0.3-0.1,0.4c0,0.1-0.1,0.2-0.1,0.2c0,0-0.1,0.1-0.2,0.1h-3.9v5.4h4.6c0.1,0,0.1,0,0.2,0.1
	c0.1,0.1,0.1,0.2,0.1,0.3c0,0.2,0.1,0.3,0.1,0.5C234.7,167.3,234.7,167.5,234.7,167.8z"/>
<path class="st2" d="M247.3,168c0,0.2,0,0.4-0.1,0.6c0,0.2-0.1,0.3-0.2,0.4c-0.1,0.1-0.2,0.2-0.3,0.3c-0.1,0.1-0.2,0.1-0.4,0.1h-1.1
	c-0.2,0-0.4,0-0.6-0.1c-0.2-0.1-0.3-0.2-0.5-0.4c-0.2-0.2-0.3-0.5-0.4-0.7c-0.1-0.3-0.3-0.7-0.4-1.2l-3.2-9
	c-0.2-0.5-0.4-1.1-0.6-1.7c-0.2-0.6-0.4-1.2-0.5-1.8l0,0c0,0.7,0,1.4,0.1,2.1c0,0.7,0,1.4,0,2.2v10c0,0.1,0,0.2-0.1,0.3
	c0,0.1-0.1,0.2-0.2,0.2c-0.1,0.1-0.2,0.1-0.4,0.1c-0.2,0-0.4,0-0.6,0c-0.2,0-0.4,0-0.6,0c-0.1,0-0.2-0.1-0.4-0.1
	c-0.1,0-0.1-0.1-0.2-0.2c0-0.1,0-0.2,0-0.3v-17.2c0-0.4,0.1-0.7,0.3-1c0.2-0.2,0.4-0.3,0.7-0.4h1.3c0.2,0,0.4,0,0.6,0.1
	c0.2,0.1,0.3,0.2,0.5,0.3c0.2,0.2,0.3,0.4,0.4,0.6c0.1,0.3,0.3,0.7,0.4,1l2.5,7l0.4,1.3c0.1,0.4,0.3,0.8,0.4,1.2l0.4,1.2
	c0.1,0.4,0.3,0.8,0.4,1.2l0,0c0-0.7,0-1.4,0-2.2s0-1.5,0-2.1v-9c0-0.1,0-0.2,0.1-0.3c0-0.1,0.1-0.2,0.2-0.2c0.1-0.1,0.2-0.1,0.4-0.1
	c0.2,0,0.4,0,0.6,0c0.2,0,0.4,0,0.6,0c0.1,0,0.2,0.1,0.4,0.1c0.1,0.1,0.1,0.1,0.2,0.2c0,0.1,0.1,0.2,0.1,0.3V168z"/>
<path class="st2" d="M260.5,159.4c0,1.5-0.1,3.1-0.5,4.6c-0.2,1.1-0.7,2.1-1.3,3.1c-0.5,0.8-1.3,1.4-2.1,1.7
	c-0.9,0.4-1.9,0.6-2.9,0.6h-3.1c-0.2,0-0.4-0.2-0.6-0.4c-0.2-0.3-0.2-0.6-0.2-0.9v-16.7c0-0.3,0-0.7,0.2-0.9
	c0.1-0.2,0.3-0.3,0.6-0.3h3.3c1,0,2,0.2,2.9,0.6c0.8,0.4,1.5,1,2,1.8c0.6,0.9,1,1.9,1.3,2.9C260.3,156.7,260.5,158.1,260.5,159.4z
	 M257.8,159.6c0-0.9-0.1-1.7-0.2-2.5c-0.1-0.7-0.4-1.4-0.7-2c-0.3-0.5-0.7-1-1.2-1.3c-0.6-0.3-1.3-0.5-1.9-0.5h-1.3v13.1h1.4
	c0.6,0,1.3-0.1,1.8-0.4c0.5-0.3,0.9-0.7,1.2-1.3c0.4-0.6,0.6-1.4,0.7-2.1C257.7,161.6,257.8,160.6,257.8,159.6L257.8,159.6z"/>
<path class="st0" d="M265,166.6c0,0.4,0,0.8,0,1.1c0,0.3-0.1,0.6-0.1,0.9c-0.1,0.3-0.1,0.6-0.2,0.8c-0.1,0.3-0.2,0.6-0.4,0.8
	l-1.3,2.8c0,0.1-0.1,0.2-0.1,0.3c-0.1,0.1-0.1,0.1-0.2,0.2c-0.1,0-0.2,0.1-0.3,0.1c-0.1,0-0.3,0-0.4,0c-0.2,0-0.3,0-0.5,0
	c-0.1,0-0.2-0.1-0.3-0.1c-0.1,0-0.1-0.1-0.1-0.2c0-0.1,0-0.2,0-0.3l1.2-4.1v-2.4c0-0.3,0-0.6,0.1-0.8c0-0.2,0.1-0.3,0.3-0.5
	c0.1-0.1,0.3-0.2,0.4-0.2c0.2,0,0.4-0.1,0.6-0.1c0.2,0,0.4,0,0.6,0.1c0.2,0,0.3,0.1,0.4,0.2c0.1,0.1,0.2,0.3,0.2,0.5
	C265,166.1,265,166.3,265,166.6z"/>
<path class="st2" d="M283,159.5c0,1.4-0.1,2.9-0.4,4.3c-0.2,1.1-0.6,2.2-1.2,3.2c-0.5,0.8-1.1,1.5-1.9,2c-0.8,0.5-1.7,0.7-2.7,0.7
	c-0.9,0-1.8-0.2-2.6-0.6c-0.8-0.4-1.4-1-1.9-1.8c-0.6-0.9-0.9-2-1.1-3.1c-0.3-1.4-0.4-2.9-0.4-4.4c0-1.4,0.1-2.8,0.4-4.2
	c0.2-1.1,0.6-2.2,1.2-3.2c0.5-0.8,1.1-1.5,1.9-2c0.8-0.5,1.7-0.7,2.7-0.7c0.9,0,1.8,0.2,2.6,0.6c0.8,0.4,1.4,1,1.9,1.8
	c0.5,0.9,0.9,1.9,1.1,3C282.9,156.6,283,158,283,159.5z M280.3,159.7c0-0.9,0-1.8-0.2-2.8c-0.1-0.7-0.3-1.4-0.5-2.1
	c-0.2-0.5-0.6-1-1-1.4c-0.5-0.3-1-0.5-1.6-0.5c-0.6,0-1.2,0.2-1.6,0.5c-0.4,0.4-0.8,0.9-1,1.4c-0.3,0.7-0.5,1.4-0.6,2.1
	c-0.1,0.8-0.2,1.7-0.2,2.6c0,0.9,0,1.9,0.2,2.8c0.1,0.7,0.3,1.5,0.5,2.1c0.2,0.5,0.5,1,1,1.4c0.5,0.3,1,0.5,1.6,0.5
	c0.6,0,1.2-0.2,1.6-0.5c0.4-0.4,0.8-0.9,1-1.4c0.3-0.7,0.5-1.4,0.6-2.1C280.2,161.5,280.2,160.6,280.3,159.7L280.3,159.7z"/>
<path class="st2" d="M294.4,168.8c0,0.1,0,0.2,0,0.3c0,0.1-0.1,0.2-0.2,0.2c-0.1,0.1-0.3,0.1-0.4,0.1c-0.2,0-0.5,0-0.8,0
	c-0.2,0-0.4,0-0.7,0c-0.1,0-0.3,0-0.4-0.1c-0.1,0-0.2-0.1-0.2-0.2c0-0.1-0.1-0.2-0.1-0.3l-1.1-4.3c-0.1-0.5-0.3-0.9-0.4-1.3
	c-0.1-0.3-0.3-0.6-0.4-0.9c-0.1-0.2-0.3-0.4-0.6-0.6c-0.2-0.1-0.5-0.2-0.7-0.2h-0.8v7.3c0,0.1,0,0.2-0.1,0.3c0,0.1-0.1,0.1-0.2,0.2
	c-0.1,0.1-0.3,0.1-0.4,0.1c-0.4,0.1-0.8,0.1-1.3,0c-0.1,0-0.3-0.1-0.4-0.1c-0.1,0-0.2-0.1-0.2-0.2c0-0.1-0.1-0.2-0.1-0.3v-17.4
	c0-0.3,0-0.7,0.2-0.9c0.1-0.2,0.3-0.3,0.5-0.3h3.3c0.3,0,0.6,0,0.8,0l0.6,0.1c0.5,0.1,1,0.3,1.4,0.6c0.4,0.3,0.8,0.6,1,1
	c0.3,0.5,0.5,1,0.7,1.5c0.2,0.7,0.2,1.3,0.2,2c0,0.6,0,1.2-0.2,1.8c-0.1,0.5-0.3,1-0.5,1.4c-0.2,0.4-0.5,0.8-0.8,1.1
	c-0.3,0.3-0.7,0.6-1.1,0.7c0.2,0.1,0.4,0.3,0.5,0.5c0.2,0.2,0.3,0.5,0.5,0.7c0.2,0.3,0.3,0.7,0.4,1c0.1,0.4,0.3,0.8,0.4,1.2l1.1,3.8
	c0.1,0.4,0.2,0.6,0.2,0.8C294.4,168.5,294.4,168.7,294.4,168.8z M291,155.8c0-0.5-0.1-1.1-0.3-1.6c-0.2-0.4-0.5-0.8-0.9-0.9
	c-0.1-0.1-0.3-0.1-0.5-0.1c-0.2,0-0.5,0-0.7,0h-1.2v5.4h1.3c0.3,0,0.7-0.1,1-0.2c0.3-0.1,0.5-0.3,0.7-0.6c0.2-0.3,0.3-0.6,0.4-0.9
	C291,156.6,291,156.2,291,155.8L291,155.8z"/>
<path class="st0" d="M298.7,167.2c0.1,0.6-0.1,1.3-0.3,1.9c-0.6,0.6-1.7,0.6-2.3,0c-0.3-0.6-0.4-1.2-0.3-1.8
	c-0.1-0.6,0.1-1.3,0.3-1.9c0.3-0.3,0.7-0.5,1.2-0.5c0.4,0,0.9,0.1,1.1,0.5C298.7,166,298.8,166.6,298.7,167.2z"/>
</svg>
