<svg id="Layer_1" data-name="Layer 1" xmlns="http://www.w3.org/2000/svg" viewBox="0 0 331.77 173.66"><defs><style>.cls-1{fill:#f3e359;}.cls-2{fill:#30302f;}.cls-3{fill:#fff;}</style></defs><title>Artboard 1</title><path class="cls-1" d="M171.67,47.72A39.81,39.81,0,0,0,131.86,7.91c-22,0-38.55,14-38.55,36s16.56,43.61,38.55,43.61A39.81,39.81,0,0,0,171.67,47.72Z"/><polygon class="cls-2" points="83.08 28.6 0 144.63 331.76 144.63 258.42 43.77 230.34 75.99 178.78 0 120.33 78.44 83.08 28.6"/><polygon class="cls-3" points="81.67 38.32 49.21 82.85 75.1 60.59 83.61 82.85 89.02 60.59 103.7 66.34 81.67 38.32"/><polygon class="cls-3" points="177.1 11.97 135.91 70.7 166.68 46.44 196.97 83.47 187.76 39.42 206.67 51.55 177.1 11.97"/><polygon class="cls-3" points="257.2 55.07 234.88 80.4 257.2 72.64 270.88 80.4 273.76 72.64 257.2 55.07"/><path class="cls-1" d="M74.19,83,72.7,91.73c-1.89-.86-4.93,2.63-6.6,2.88-.72.12-.19-3.45-.93-3.12A7.14,7.14,0,0,0,63.05,93a11.11,11.11,0,0,0-1.87,2.69,18.05,18.05,0,0,0-1.46,4.15,45.25,45.25,0,0,0-1.31,9.47,33.77,33.77,0,0,0,.69,8.19,16.86,16.86,0,0,0,2.49,6,7.87,7.87,0,0,0,4.12,3.18,3.62,3.62,0,0,0,2.14.1,3.36,3.36,0,0,0,1.53-1,5.56,5.56,0,0,0,1-1.76,14.85,14.85,0,0,0,.64-2.21,28.37,28.37,0,0,0,.48-6.39l-5.32-1.41,0-8.71,18.82,1.28-.92,10.57-5.31-.67a29.16,29.16,0,0,1-.21,10.18,21.07,21.07,0,0,1-1.24,4,13.42,13.42,0,0,1-2.25,3.61,13.9,13.9,0,0,1-3.56,2.87,15.11,15.11,0,0,1-5.1,1.75,10.12,10.12,0,0,1-7.12-1.21,17,17,0,0,1-5.44-5.38,32.19,32.19,0,0,1-3.74-8.13,54.71,54.71,0,0,1-2.4-18.82,29.44,29.44,0,0,1,1.34-7.8q3.29-9.88,9.6-13.65T74.19,83Z"/><path class="cls-1" d="M102.77,82.77a6.68,6.68,0,0,1,5.1,1.54,14.27,14.27,0,0,1,3.94,5.43,33.9,33.9,0,0,1,2.39,8.63,55.81,55.81,0,0,1,.52,11.06,71,71,0,0,1-1.36,11.22,46,46,0,0,1-2.8,9.11,19.61,19.61,0,0,1-4,6.12,6.88,6.88,0,0,1-4.91,2.23,10.75,10.75,0,0,1-7.11-2.39,15.62,15.62,0,0,1-4.48-6.44,31.81,31.81,0,0,1-2-9.48,65.28,65.28,0,0,1,.27-11.5Q89.79,96,93.4,89.7T102.77,82.77Zm4.67,27.63a31.83,31.83,0,0,0-.27-5.79,16.1,16.1,0,0,0-1.09-4.05,6.42,6.42,0,0,0-1.63-2.35,2.89,2.89,0,0,0-1.85-.77,3.83,3.83,0,0,0-2.88,1.34,10.63,10.63,0,0,0-2.09,3.61,27,27,0,0,0-1.3,5.19,44.06,44.06,0,0,0-.52,6.16,22.34,22.34,0,0,0,.49,5.51A13.36,13.36,0,0,0,97.72,123,5.94,5.94,0,0,0,99.56,125a2.47,2.47,0,0,0,1.79.45,3.64,3.64,0,0,0,1.82-1.3,13.16,13.16,0,0,0,1.93-3.08,24,24,0,0,0,1.58-4.66A30.19,30.19,0,0,0,107.43,110.4Z"/><path class="cls-1" d="M144,119.55a24.77,24.77,0,0,1-1.25,9.07,15.26,15.26,0,0,1-3.77,5.91,14.89,14.89,0,0,1-5.62,3.32,27.74,27.74,0,0,1-6.84,1.3,9.55,9.55,0,0,1-3.12-.16,11.86,11.86,0,0,1-2.2-.73,6.86,6.86,0,0,1-1.74-1.13l.11-34.84-.43-21.15a35.08,35.08,0,0,1,10-.32,23.71,23.71,0,0,1,3.85.81,13.68,13.68,0,0,1,3.53,1.62A10,10,0,0,1,141,89.9a21.17,21.17,0,0,1-.11,9.07,18.33,18.33,0,0,1-3.53,7.21,14.62,14.62,0,0,1,2.36,1.82,12.38,12.38,0,0,1,2.12,2.67,14.92,14.92,0,0,1,1.55,3.77A21,21,0,0,1,144,119.55ZM133.71,96.62a6.91,6.91,0,0,0-.43-4,4.87,4.87,0,0,0-2.06-2.19,6.39,6.39,0,0,0-2.85-.73,10.13,10.13,0,0,0-2.8.28l.65,13.61a20.21,20.21,0,0,0,2.17-.69,9.62,9.62,0,0,0,2.31-1.26,8.38,8.38,0,0,0,2-2A6.58,6.58,0,0,0,133.71,96.62Zm.8,27.94c.11-1.57,1.08-6.58.4-7.44a6.15,6.15,0,0,0-2.52-1.9,10.31,10.31,0,0,0-3.15-.73,19.3,19.3,0,0,0-2.74,0l.6,13.77a9.45,9.45,0,0,0,4.18-.73,8,8,0,0,0,2.93-2.19C135.1,124.28,134.36,126.57,134.51,124.57Z"/><path class="cls-1" d="M156.78,83q0,1.78-.05,4.46-.05,2.27-.08,5.67t-.13,8q-.06,2.35-.05,5.1t.08,5.67q.08,2.92.16,5.87t.19,5.71q.22,6.4.6,13.12l-7.44,1-1.52-53Z"/><path class="cls-1" d="M183.59,82.2l3.73,40.26,6.8-22.92L199.39,98l3.8,21.31,3.2-15.56,4.07-22.12,9.61.57-4,18L207.75,139h-6.89l-4.45-23.66L191.57,139h-6.79L174.53,82.2Z"/><path class="cls-1" d="M231.09,83q0,1.78-.05,4.46-.05,2.27-.08,5.67t-.13,8q-.06,2.35-.05,5.1t.08,5.67q.08,2.92.16,5.87t.19,5.71q.22,6.4.6,13.12l-7.44,1-1.52-53Z"/><path class="cls-1" d="M247.65,81.07q-.27,2.59-.54,5.87t-.49,6.93q-.22,3.65-.44,7.45t-.38,7.37q-.44,8.43-.76,17.42l10.21-1.22v14.83l-16.61-.4-.92-56.15Z"/><path class="cls-1" d="M260.13,81.39A42.92,42.92,0,0,1,269,82.61a17,17,0,0,1,7.46,4A19.74,19.74,0,0,1,281.52,95q1.85,5.39,1.68,14.3a40.59,40.59,0,0,1-.95,8.1,34.56,34.56,0,0,1-2.17,6.56,28.19,28.19,0,0,1-3,5.14,36.72,36.72,0,0,1-3.34,3.93,27.85,27.85,0,0,1-9.07,5.91h-3.85Zm15.53,25.36a16.8,16.8,0,0,0-.38-4.7A11.79,11.79,0,0,0,274,98.81a6.53,6.53,0,0,0-1.77-2,7.86,7.86,0,0,0-1.9-1,5.15,5.15,0,0,0-1.68-.32,4.31,4.31,0,0,0-1,.08v25a11.19,11.19,0,0,0,3.85-2.75,16.22,16.22,0,0,0,2.74-4.21A17.66,17.66,0,0,0,275.66,106.75Z"/><path class="cls-3" d="M52.53,168.33a2.15,2.15,0,0,1-.16.57.71.71,0,0,1-.31.33,1.5,1.5,0,0,1-.54.15,7.68,7.68,0,0,1-.84,0,8.84,8.84,0,0,1-.91,0,1.43,1.43,0,0,1-.54-.15.65.65,0,0,1-.29-.33,2.41,2.41,0,0,1-.14-.57l-2.06-12.16h0l-1.95,12.16a2.39,2.39,0,0,1-.14.56.7.7,0,0,1-.28.33,1.28,1.28,0,0,1-.53.16,8.29,8.29,0,0,1-.88,0,9,9,0,0,1-.92,0,1.44,1.44,0,0,1-.54-.15.65.65,0,0,1-.29-.33,2.69,2.69,0,0,1-.15-.57l-2.92-16.75a6.69,6.69,0,0,1-.1-.84.72.72,0,0,1,.11-.47.58.58,0,0,1,.41-.2,6.45,6.45,0,0,1,.79,0l.74,0a1,1,0,0,1,.41.1.41.41,0,0,1,.19.24,2.38,2.38,0,0,1,.08.44L43,165.55h0l2.35-14.6a2.33,2.33,0,0,1,.1-.46.53.53,0,0,1,.22-.27,1.08,1.08,0,0,1,.42-.13,5.46,5.46,0,0,1,.72,0q.48,0,.76,0a1,1,0,0,1,.44.13.55.55,0,0,1,.22.27,2.12,2.12,0,0,1,.11.47l2.42,14.6h0l2.26-14.66a2.63,2.63,0,0,1,.08-.41.47.47,0,0,1,.19-.27.93.93,0,0,1,.4-.13,5.43,5.43,0,0,1,.73,0,4.8,4.8,0,0,1,.68,0,.49.49,0,0,1,.35.2.8.8,0,0,1,.09.48,8.13,8.13,0,0,1-.1.87Z"/><path class="cls-3" d="M59.72,168.79a.55.55,0,0,1-.06.27.47.47,0,0,1-.21.19,1.5,1.5,0,0,1-.4.12,4.53,4.53,0,0,1-1.27,0,1.5,1.5,0,0,1-.4-.12.47.47,0,0,1-.21-.19.55.55,0,0,1-.06-.27V150.67a.55.55,0,0,1,.06-.27.46.46,0,0,1,.22-.19,1.59,1.59,0,0,1,.4-.12,3.65,3.65,0,0,1,.63,0,3.72,3.72,0,0,1,.64,0,1.5,1.5,0,0,1,.4.12.47.47,0,0,1,.21.19.55.55,0,0,1,.06.27Z"/><path class="cls-3" d="M69.25,167.7q0,.45,0,.75a3.22,3.22,0,0,1-.07.5.72.72,0,0,1-.12.29.22.22,0,0,1-.17.09H63a.67.67,0,0,1-.55-.29,1.56,1.56,0,0,1-.22-.94V150.67a.55.55,0,0,1,.06-.27.47.47,0,0,1,.21-.19,1.5,1.5,0,0,1,.4-.12,4.53,4.53,0,0,1,1.27,0,1.5,1.5,0,0,1,.4.12.47.47,0,0,1,.21.19.55.55,0,0,1,.06.27v15.44h4a.23.23,0,0,1,.17.08.64.64,0,0,1,.12.27,2.84,2.84,0,0,1,.07.49Q69.25,167.25,69.25,167.7Z"/><path class="cls-3" d="M81.13,159.45a19.15,19.15,0,0,1-.46,4.52A8.7,8.7,0,0,1,79.34,167a5.24,5.24,0,0,1-2.1,1.74,7.15,7.15,0,0,1-2.95.56H71.22a.67.67,0,0,1-.55-.29,1.56,1.56,0,0,1-.22-.94V151.36a1.56,1.56,0,0,1,.22-.94.67.67,0,0,1,.55-.29h3.3a6.46,6.46,0,0,1,2.92.6,5.38,5.38,0,0,1,2,1.78,8.72,8.72,0,0,1,1.25,2.92A16.92,16.92,0,0,1,81.13,159.45Zm-2.7.13a14.18,14.18,0,0,0-.21-2.54,6.72,6.72,0,0,0-.69-2,3.67,3.67,0,0,0-1.21-1.34,3.51,3.51,0,0,0-1.94-.48H73v13.06h1.36a3.63,3.63,0,0,0,1.81-.42,3.33,3.33,0,0,0,1.23-1.25,6.63,6.63,0,0,0,.74-2.08A15.35,15.35,0,0,0,78.42,159.58Z"/><path class="cls-3" d="M90.55,167.8q0,.43,0,.72a2.63,2.63,0,0,1-.07.47.65.65,0,0,1-.12.26.22.22,0,0,1-.16.08H83.7a.67.67,0,0,1-.55-.29,1.56,1.56,0,0,1-.22-.94V151.36a1.56,1.56,0,0,1,.22-.94.67.67,0,0,1,.55-.29h6.42a.21.21,0,0,1,.16.07.62.62,0,0,1,.12.26,2.8,2.8,0,0,1,.07.47q0,.29,0,.73t0,.7a2.62,2.62,0,0,1-.07.47.69.69,0,0,1-.12.26.2.2,0,0,1-.16.08H85.53v4.69h3.89a.22.22,0,0,1,.16.08.65.65,0,0,1,.12.25,2.46,2.46,0,0,1,.07.46q0,.29,0,.7t0,.71a2.43,2.43,0,0,1-.07.45.58.58,0,0,1-.12.24.23.23,0,0,1-.16.07H85.53v5.41h4.63a.22.22,0,0,1,.16.08.65.65,0,0,1,.12.26,2.63,2.63,0,0,1,.07.47Q90.55,167.37,90.55,167.8Z"/><path class="cls-3" d="M102.05,168.82a.84.84,0,0,1,0,.27.35.35,0,0,1-.19.19,1.32,1.32,0,0,1-.44.1q-.29,0-.79,0a5.89,5.89,0,0,1-.67,0,1.06,1.06,0,0,1-.39-.11.47.47,0,0,1-.2-.21,1.47,1.47,0,0,1-.1-.3l-1.15-4.29q-.21-.73-.41-1.29a4.54,4.54,0,0,0-.44-.94,1.77,1.77,0,0,0-.56-.57,1.39,1.39,0,0,0-.74-.19h-.82v7.31a.55.55,0,0,1-.06.27.47.47,0,0,1-.21.19,1.5,1.5,0,0,1-.4.12,4.53,4.53,0,0,1-1.27,0,1.51,1.51,0,0,1-.4-.12.44.44,0,0,1-.21-.19.58.58,0,0,1-.06-.27V151.36a1.56,1.56,0,0,1,.22-.94.67.67,0,0,1,.55-.29h3.33q.51,0,.84,0l.6.07a4.12,4.12,0,0,1,1.4.56,3.64,3.64,0,0,1,1.05,1,5,5,0,0,1,.66,1.53,8.12,8.12,0,0,1,.23,2,8.7,8.7,0,0,1-.16,1.76,5.6,5.6,0,0,1-.48,1.42,4.17,4.17,0,0,1-.79,1.08,3.85,3.85,0,0,1-1.06.74,3.1,3.1,0,0,1,.54.5,4,4,0,0,1,.48.72,7.85,7.85,0,0,1,.42,1q.2.54.39,1.22l1.08,3.78q.15.56.2.82A2.34,2.34,0,0,1,102.05,168.82Zm-3.37-13a4,4,0,0,0-.29-1.6,1.7,1.7,0,0,0-.94-.92,2.57,2.57,0,0,0-.45-.12,4.27,4.27,0,0,0-.7,0H95.12v5.44h1.33a2.23,2.23,0,0,0,1-.2,1.9,1.9,0,0,0,.7-.56,2.51,2.51,0,0,0,.42-.87A4.24,4.24,0,0,0,98.68,155.8Z"/><path class="cls-3" d="M114.23,168a2.13,2.13,0,0,1-.08.61,1.39,1.39,0,0,1-.21.45.8.8,0,0,1-.32.26.91.91,0,0,1-.37.08h-1.11a1.58,1.58,0,0,1-.6-.1,1.17,1.17,0,0,1-.47-.38,3.36,3.36,0,0,1-.41-.74q-.2-.47-.45-1.21l-3.2-9q-.28-.8-.57-1.73t-.52-1.8h0q0,1.07.06,2.13t0,2.19v10a.63.63,0,0,1-.05.27.46.46,0,0,1-.19.2,1.11,1.11,0,0,1-.36.13,3.16,3.16,0,0,1-.59,0,3.09,3.09,0,0,1-.58,0,1.05,1.05,0,0,1-.36-.13.44.44,0,0,1-.18-.2.68.68,0,0,1-.05-.27V151.53a1.68,1.68,0,0,1,.27-1,.83.83,0,0,1,.67-.35H106a1.83,1.83,0,0,1,.64.1,1.19,1.19,0,0,1,.46.32,2.35,2.35,0,0,1,.38.62,9.56,9.56,0,0,1,.37,1l2.5,7,.43,1.25q.21.62.41,1.23l.39,1.21q.19.59.37,1.19h0q0-1,0-2.17t0-2.15v-9a.59.59,0,0,1,.06-.27.54.54,0,0,1,.2-.21,1,1,0,0,1,.37-.13,3.78,3.78,0,0,1,.59,0,3.63,3.63,0,0,1,.57,0,.84.84,0,0,1,.35.13.49.49,0,0,1,.17.21.68.68,0,0,1,.05.27Z"/><path class="cls-3" d="M124.31,167.8q0,.43,0,.72a2.63,2.63,0,0,1-.07.47.65.65,0,0,1-.12.26.22.22,0,0,1-.16.08h-6.46a.67.67,0,0,1-.55-.29,1.56,1.56,0,0,1-.22-.94V151.36a1.56,1.56,0,0,1,.22-.94.67.67,0,0,1,.55-.29h6.42a.21.21,0,0,1,.16.07.62.62,0,0,1,.12.26,2.8,2.8,0,0,1,.07.47q0,.29,0,.73t0,.7a2.62,2.62,0,0,1-.07.47.69.69,0,0,1-.12.26.2.2,0,0,1-.16.08h-4.59v4.69h3.89a.22.22,0,0,1,.16.08.65.65,0,0,1,.12.25,2.46,2.46,0,0,1,.07.46q0,.29,0,.7t0,.71a2.43,2.43,0,0,1-.07.45.58.58,0,0,1-.12.24.23.23,0,0,1-.16.07h-3.89v5.41h4.63a.22.22,0,0,1,.16.08.65.65,0,0,1,.12.26,2.63,2.63,0,0,1,.07.47Q124.31,167.37,124.31,167.8Z"/><path class="cls-3" d="M133.89,163.57a8.47,8.47,0,0,1-.38,2.66,5.68,5.68,0,0,1-1,1.91,4.21,4.21,0,0,1-1.51,1.15,4.68,4.68,0,0,1-3.09.22,5.3,5.3,0,0,1-1-.39,3.9,3.9,0,0,1-.73-.48,2.38,2.38,0,0,1-.42-.45,1.38,1.38,0,0,1-.18-.56,7.54,7.54,0,0,1-.05-1q0-.46,0-.77a3.2,3.2,0,0,1,.06-.5.61.61,0,0,1,.12-.27.23.23,0,0,1,.17-.08q.14,0,.39.24a6.93,6.93,0,0,0,.65.54,4.93,4.93,0,0,0,.95.54,3.12,3.12,0,0,0,1.28.24,2.05,2.05,0,0,0,.85-.17,1.79,1.79,0,0,0,.64-.48,2.15,2.15,0,0,0,.4-.77,3.53,3.53,0,0,0,.14-1,2.44,2.44,0,0,0-.24-1.12,3.06,3.06,0,0,0-.62-.83,6.17,6.17,0,0,0-.87-.68l-1-.68a8.82,8.82,0,0,1-1-.81,5,5,0,0,1-.87-1.08,5.89,5.89,0,0,1-.62-1.49,8.87,8.87,0,0,1,.1-4.49,5.14,5.14,0,0,1,.92-1.74,3.69,3.69,0,0,1,1.37-1,4.18,4.18,0,0,1,1.68-.34,4.12,4.12,0,0,1,.91.1,4.56,4.56,0,0,1,.85.28,4,4,0,0,1,.71.4,1.73,1.73,0,0,1,.41.37,1.13,1.13,0,0,1,.13.25,1.68,1.68,0,0,1,.06.27,4.18,4.18,0,0,1,0,.43c0,.17,0,.39,0,.65s0,.53,0,.73a4,4,0,0,1-.05.49.71.71,0,0,1-.1.28.2.2,0,0,1-.17.09.69.69,0,0,1-.35-.21,7.18,7.18,0,0,0-.59-.45,4.61,4.61,0,0,0-.8-.45,2.48,2.48,0,0,0-1-.2,1.68,1.68,0,0,0-.75.16,1.5,1.5,0,0,0-.53.43,1.84,1.84,0,0,0-.32.66,3.1,3.1,0,0,0-.1.82,2.44,2.44,0,0,0,.23,1.11,2.87,2.87,0,0,0,.63.83,6.35,6.35,0,0,0,.89.68l1,.68a9.62,9.62,0,0,1,1,.81,5,5,0,0,1,.88,1.08,5.82,5.82,0,0,1,.63,1.48A7.52,7.52,0,0,1,133.89,163.57Z"/><path class="cls-3" d="M143.17,163.57a8.47,8.47,0,0,1-.38,2.66,5.68,5.68,0,0,1-1,1.91,4.21,4.21,0,0,1-1.51,1.15,4.68,4.68,0,0,1-3.09.22,5.3,5.3,0,0,1-1-.39,3.9,3.9,0,0,1-.73-.48,2.38,2.38,0,0,1-.42-.45,1.38,1.38,0,0,1-.18-.56,7.54,7.54,0,0,1-.05-1q0-.46,0-.77a3.2,3.2,0,0,1,.06-.5A.61.61,0,0,1,135,165a.23.23,0,0,1,.17-.08q.14,0,.39.24a6.93,6.93,0,0,0,.65.54,4.93,4.93,0,0,0,.95.54,3.12,3.12,0,0,0,1.28.24,2.05,2.05,0,0,0,.85-.17,1.79,1.79,0,0,0,.64-.48,2.15,2.15,0,0,0,.4-.77,3.53,3.53,0,0,0,.14-1,2.44,2.44,0,0,0-.24-1.12,3.06,3.06,0,0,0-.62-.83,6.17,6.17,0,0,0-.87-.68l-1-.68a8.82,8.82,0,0,1-1-.81,5,5,0,0,1-.87-1.08,5.89,5.89,0,0,1-.62-1.49,8.87,8.87,0,0,1,.1-4.49,5.14,5.14,0,0,1,.92-1.74,3.69,3.69,0,0,1,1.37-1,4.18,4.18,0,0,1,1.68-.34,4.12,4.12,0,0,1,.91.1,4.56,4.56,0,0,1,.85.28,4,4,0,0,1,.71.4,1.73,1.73,0,0,1,.41.37,1.13,1.13,0,0,1,.13.25,1.68,1.68,0,0,1,.06.27,4.18,4.18,0,0,1,0,.43c0,.17,0,.39,0,.65s0,.53,0,.73a4,4,0,0,1-.05.49.71.71,0,0,1-.1.28.2.2,0,0,1-.17.09.69.69,0,0,1-.35-.21,7.18,7.18,0,0,0-.59-.45,4.61,4.61,0,0,0-.8-.45,2.48,2.48,0,0,0-1-.2,1.68,1.68,0,0,0-.75.16,1.5,1.5,0,0,0-.53.43,1.84,1.84,0,0,0-.32.66,3.1,3.1,0,0,0-.1.82,2.44,2.44,0,0,0,.23,1.11,2.87,2.87,0,0,0,.63.83,6.35,6.35,0,0,0,.89.68l1,.68a9.62,9.62,0,0,1,1,.81,5,5,0,0,1,.88,1.08,5.82,5.82,0,0,1,.63,1.48A7.52,7.52,0,0,1,143.17,163.57Z"/><path class="cls-3" d="M158,166.42q0,.37,0,.63a4.29,4.29,0,0,1,0,.45,1.72,1.72,0,0,1-.08.32,1.66,1.66,0,0,1-.16.3,2.26,2.26,0,0,1-.42.44,4.42,4.42,0,0,1-.77.51,5,5,0,0,1-1,.41,4.64,4.64,0,0,1-1.26.16,4.72,4.72,0,0,1-2.39-.61,5.14,5.14,0,0,1-1.81-1.82,9.69,9.69,0,0,1-1.14-3,19.79,19.79,0,0,1-.4-4.21,19.46,19.46,0,0,1,.44-4.35,10.76,10.76,0,0,1,1.22-3.19,5.68,5.68,0,0,1,1.88-2,4.57,4.57,0,0,1,2.42-.67,4,4,0,0,1,1,.13,4.72,4.72,0,0,1,.92.35,4,4,0,0,1,.76.5,2.54,2.54,0,0,1,.47.48,1.68,1.68,0,0,1,.18.33,1.66,1.66,0,0,1,.08.34q0,.21,0,.49t0,.7q0,.45,0,.76a2.82,2.82,0,0,1-.07.5.79.79,0,0,1-.12.28.2.2,0,0,1-.16.09q-.15,0-.38-.26a6.68,6.68,0,0,0-.59-.58,4.3,4.3,0,0,0-.86-.58,2.58,2.58,0,0,0-1.2-.26,2.17,2.17,0,0,0-1.37.47,3.7,3.7,0,0,0-1,1.34,8,8,0,0,0-.64,2.1,18.09,18.09,0,0,0,0,5.7,7.09,7.09,0,0,0,.67,2,3.16,3.16,0,0,0,1,1.19,2.49,2.49,0,0,0,1.38.39,2.74,2.74,0,0,0,1.2-.24,4.36,4.36,0,0,0,.87-.54,7.51,7.51,0,0,0,.6-.53q.23-.24.36-.24a.22.22,0,0,1,.16.06.5.5,0,0,1,.1.24,3.4,3.4,0,0,1,.06.5Q158,165.89,158,166.42Z"/><path class="cls-3" d="M170,167.87a7.25,7.25,0,0,1,.15.85.7.7,0,0,1-.08.47.53.53,0,0,1-.39.19,6.14,6.14,0,0,1-.77,0l-.79,0a1.35,1.35,0,0,1-.43-.09.41.41,0,0,1-.21-.19,1.29,1.29,0,0,1-.1-.31l-.86-3.86h-4.83l-.81,3.75a1.56,1.56,0,0,1-.1.35.49.49,0,0,1-.21.22,1.09,1.09,0,0,1-.41.11,6.44,6.44,0,0,1-.69,0,4.44,4.44,0,0,1-.72,0,.48.48,0,0,1-.36-.22.81.81,0,0,1-.07-.48,6.88,6.88,0,0,1,.15-.83l4-17a1.86,1.86,0,0,1,.14-.41.52.52,0,0,1,.25-.24,1.4,1.4,0,0,1,.48-.1l.82,0,.93,0a1.73,1.73,0,0,1,.54.1.53.53,0,0,1,.28.24,1.8,1.8,0,0,1,.14.45Zm-5.9-14.08h0L162.31,162H166Z"/><path class="cls-3" d="M186.48,168.79a.62.62,0,0,1-.06.27.42.42,0,0,1-.2.19,1.42,1.42,0,0,1-.38.12,3.39,3.39,0,0,1-.61,0,3.35,3.35,0,0,1-.6,0,1.34,1.34,0,0,1-.38-.12.45.45,0,0,1-.2-.19.59.59,0,0,1-.06-.27V153.17h0l-3.73,15.61a.84.84,0,0,1-.13.32.63.63,0,0,1-.24.2,1.16,1.16,0,0,1-.39.1l-.58,0a3.83,3.83,0,0,1-.58,0,1.25,1.25,0,0,1-.39-.12.73.73,0,0,1-.24-.2.66.66,0,0,1-.12-.28L174,153.17h0v15.62a.63.63,0,0,1-.05.27.42.42,0,0,1-.2.19,1.5,1.5,0,0,1-.38.12,4.05,4.05,0,0,1-1.2,0,1.42,1.42,0,0,1-.38-.12.42.42,0,0,1-.2-.19.63.63,0,0,1-.06-.27V151.69a2.08,2.08,0,0,1,.27-1.16.82.82,0,0,1,.72-.4h1.71a2.45,2.45,0,0,1,.79.11,1.34,1.34,0,0,1,.57.37,2.09,2.09,0,0,1,.4.68,6.47,6.47,0,0,1,.28,1L179,163.78h0l2.88-11.41a8,8,0,0,1,.28-1.05,2.61,2.61,0,0,1,.36-.7,1.14,1.14,0,0,1,.48-.38,1.73,1.73,0,0,1,.65-.11h1.76a1,1,0,0,1,.46.1.83.83,0,0,1,.32.3,1.55,1.55,0,0,1,.19.49,3,3,0,0,1,.07.66Z"/><path class="cls-3" d="M197.75,156a11,11,0,0,1-.34,2.86,6.07,6.07,0,0,1-1,2.1,4.25,4.25,0,0,1-1.58,1.3,5.12,5.12,0,0,1-2.21.45h-1.07v6.13a.55.55,0,0,1-.06.27.47.47,0,0,1-.21.19,1.49,1.49,0,0,1-.4.12,4.53,4.53,0,0,1-1.27,0,1.5,1.5,0,0,1-.4-.12.44.44,0,0,1-.21-.19.59.59,0,0,1-.06-.27V151.53a1.83,1.83,0,0,1,.24-1,.75.75,0,0,1,.64-.35h3a7,7,0,0,1,.87.05,6.38,6.38,0,0,1,1,.22,3.58,3.58,0,0,1,1.17.63,4.1,4.1,0,0,1,1,1.16,5.78,5.78,0,0,1,.64,1.65A9.37,9.37,0,0,1,197.75,156Zm-2.73.28a4.89,4.89,0,0,0-.24-1.66,2.35,2.35,0,0,0-.59-1,1.6,1.6,0,0,0-.73-.39,3.77,3.77,0,0,0-.79-.08h-1.11v6.51h1.17a2,2,0,0,0,1-.25,2,2,0,0,0,.69-.7,3.65,3.65,0,0,0,.41-1.08A6.37,6.37,0,0,0,195,156.24Z"/><path class="cls-3" d="M207.05,163.57a8.49,8.49,0,0,1-.38,2.66,5.67,5.67,0,0,1-1,1.91,4.2,4.2,0,0,1-1.51,1.15,4.68,4.68,0,0,1-3.09.22,5.3,5.3,0,0,1-1-.39,3.9,3.9,0,0,1-.73-.48,2.4,2.4,0,0,1-.42-.45,1.4,1.4,0,0,1-.18-.56,7.64,7.64,0,0,1-.05-1c0-.31,0-.56,0-.77a3.12,3.12,0,0,1,.07-.5.62.62,0,0,1,.12-.27A.23.23,0,0,1,199,165c.09,0,.22.08.39.24a7,7,0,0,0,.65.54,4.89,4.89,0,0,0,.95.54,3.12,3.12,0,0,0,1.28.24,2.05,2.05,0,0,0,.85-.17,1.79,1.79,0,0,0,.64-.48,2.16,2.16,0,0,0,.4-.77,3.53,3.53,0,0,0,.14-1,2.43,2.43,0,0,0-.24-1.12,3,3,0,0,0-.62-.83,6.18,6.18,0,0,0-.87-.68l-1-.68a8.87,8.87,0,0,1-1-.81,5,5,0,0,1-.87-1.08,5.89,5.89,0,0,1-.62-1.49,8.87,8.87,0,0,1,.11-4.49,5.14,5.14,0,0,1,.92-1.74,3.7,3.7,0,0,1,1.37-1,4.18,4.18,0,0,1,1.68-.34,4.11,4.11,0,0,1,.91.1,4.57,4.57,0,0,1,.86.28,4,4,0,0,1,.7.4,1.72,1.72,0,0,1,.41.37,1.11,1.11,0,0,1,.13.25,1.82,1.82,0,0,1,.06.27,4.21,4.21,0,0,1,0,.43c0,.17,0,.39,0,.65s0,.53,0,.73a3.9,3.9,0,0,1,0,.49.71.71,0,0,1-.1.28.2.2,0,0,1-.17.09.7.7,0,0,1-.35-.21,7.06,7.06,0,0,0-.59-.45,4.65,4.65,0,0,0-.8-.45,2.48,2.48,0,0,0-1-.2,1.67,1.67,0,0,0-.75.16,1.49,1.49,0,0,0-.53.43,1.85,1.85,0,0,0-.32.66,3.13,3.13,0,0,0-.1.82,2.44,2.44,0,0,0,.23,1.11,2.87,2.87,0,0,0,.63.83,6.39,6.39,0,0,0,.89.68l1,.68a9.55,9.55,0,0,1,1,.81,5,5,0,0,1,.89,1.08,5.82,5.82,0,0,1,.63,1.48A7.49,7.49,0,0,1,207.05,163.57Z"/><path class="cls-3" d="M211.5,167.19a3.62,3.62,0,0,1-.32,1.85,1.65,1.65,0,0,1-2.31,0,3.42,3.42,0,0,1-.32-1.77,3.67,3.67,0,0,1,.32-1.87,1.31,1.31,0,0,1,1.17-.47,1.28,1.28,0,0,1,1.14.47A3.45,3.45,0,0,1,211.5,167.19Z"/><path class="cls-3" d="M227.36,163.57a8.45,8.45,0,0,1-.19,1.85,6.11,6.11,0,0,1-.52,1.47,4.41,4.41,0,0,1-.8,1.1,4.32,4.32,0,0,1-1,.76,4.67,4.67,0,0,1-1.19.44,6.46,6.46,0,0,1-1.41.14h-3.42a.67.67,0,0,1-.55-.29,1.55,1.55,0,0,1-.22-.94V151.36a1.55,1.55,0,0,1,.22-.94.67.67,0,0,1,.55-.29h3.23a5.92,5.92,0,0,1,2,.3,3.48,3.48,0,0,1,1.38.9,4,4,0,0,1,.86,1.52,7,7,0,0,1,.3,2.17,6.93,6.93,0,0,1-.12,1.31,5,5,0,0,1-.35,1.12,3.64,3.64,0,0,1-.56.89,2.79,2.79,0,0,1-.76.62,2.75,2.75,0,0,1,1,.52,3.43,3.43,0,0,1,.8,1,5.29,5.29,0,0,1,.54,1.37A7.23,7.23,0,0,1,227.36,163.57ZM224,155.49a4.1,4.1,0,0,0-.12-1,2.07,2.07,0,0,0-.36-.76,1.57,1.57,0,0,0-.6-.47,2.39,2.39,0,0,0-1-.16h-1.32v5h1.46a1.77,1.77,0,0,0,.9-.2,1.69,1.69,0,0,0,.56-.55,2.58,2.58,0,0,0,.33-.82A4.32,4.32,0,0,0,224,155.49Zm.67,8.22a4.41,4.41,0,0,0-.15-1.19,2.46,2.46,0,0,0-.44-.88,1.89,1.89,0,0,0-.74-.55,3,3,0,0,0-1.16-.19h-1.55v5.46h1.89a2.21,2.21,0,0,0,.92-.17,1.79,1.79,0,0,0,.65-.5,2.44,2.44,0,0,0,.43-.83A3.84,3.84,0,0,0,224.65,163.71Z"/><path class="cls-3" d="M236.74,167.8q0,.43,0,.72a2.57,2.57,0,0,1-.07.47.65.65,0,0,1-.12.26.22.22,0,0,1-.16.08h-6.46a.67.67,0,0,1-.55-.29,1.55,1.55,0,0,1-.22-.94V151.36a1.55,1.55,0,0,1,.22-.94.67.67,0,0,1,.55-.29h6.42a.21.21,0,0,1,.16.07.62.62,0,0,1,.12.26,2.75,2.75,0,0,1,.07.47c0,.19,0,.44,0,.73s0,.51,0,.7a2.57,2.57,0,0,1-.07.47.69.69,0,0,1-.12.26.2.2,0,0,1-.16.08h-4.59v4.69h3.89a.22.22,0,0,1,.16.08.65.65,0,0,1,.12.25,2.41,2.41,0,0,1,.07.46q0,.29,0,.7t0,.71a2.38,2.38,0,0,1-.07.45.58.58,0,0,1-.12.24.23.23,0,0,1-.16.07h-3.89v5.41h4.63a.22.22,0,0,1,.16.08.65.65,0,0,1,.12.26,2.57,2.57,0,0,1,.07.47Q236.74,167.37,236.74,167.8Z"/><path class="cls-3" d="M249.31,168a2.13,2.13,0,0,1-.08.61,1.38,1.38,0,0,1-.21.45.8.8,0,0,1-.32.26.91.91,0,0,1-.37.08h-1.11a1.57,1.57,0,0,1-.6-.1,1.16,1.16,0,0,1-.47-.38,3.36,3.36,0,0,1-.41-.74q-.2-.47-.45-1.21l-3.2-9q-.28-.8-.57-1.73t-.52-1.8h0q0,1.07.06,2.13t0,2.19v10a.62.62,0,0,1-.05.27.46.46,0,0,1-.19.2,1.11,1.11,0,0,1-.36.13,3.16,3.16,0,0,1-.59,0,3.1,3.1,0,0,1-.58,0,1,1,0,0,1-.36-.13.44.44,0,0,1-.18-.2.68.68,0,0,1,0-.27V151.53a1.68,1.68,0,0,1,.27-1,.82.82,0,0,1,.67-.35H241a1.84,1.84,0,0,1,.64.1,1.19,1.19,0,0,1,.46.32,2.34,2.34,0,0,1,.38.62,9.4,9.4,0,0,1,.37,1l2.5,7,.43,1.25q.21.62.41,1.23l.39,1.21q.19.59.37,1.19h0q0-1,0-2.17t0-2.15v-9a.59.59,0,0,1,.06-.27.54.54,0,0,1,.2-.21,1,1,0,0,1,.37-.13,3.77,3.77,0,0,1,.59,0,3.62,3.62,0,0,1,.57,0,.84.84,0,0,1,.35.13.49.49,0,0,1,.17.21.68.68,0,0,1,.05.27Z"/><path class="cls-3" d="M262.45,159.45A19.14,19.14,0,0,1,262,164a8.7,8.7,0,0,1-1.33,3.06,5.25,5.25,0,0,1-2.1,1.74,7.14,7.14,0,0,1-2.95.56h-3.07A.67.67,0,0,1,252,169a1.55,1.55,0,0,1-.22-.94V151.36a1.55,1.55,0,0,1,.22-.94.67.67,0,0,1,.55-.29h3.3a6.45,6.45,0,0,1,2.92.6,5.38,5.38,0,0,1,2,1.78,8.71,8.71,0,0,1,1.25,2.92A16.88,16.88,0,0,1,262.45,159.45Zm-2.7.13a14.18,14.18,0,0,0-.21-2.54,6.68,6.68,0,0,0-.69-2,3.66,3.66,0,0,0-1.21-1.34,3.51,3.51,0,0,0-1.94-.48h-1.32v13.06h1.36a3.63,3.63,0,0,0,1.81-.42,3.32,3.32,0,0,0,1.23-1.25,6.62,6.62,0,0,0,.74-2.08A15.35,15.35,0,0,0,259.74,159.58Z"/><path class="cls-3" d="M267,166.6q0,.59,0,1.08a7.47,7.47,0,0,1-.13.91,7,7,0,0,1-.23.84,7.5,7.5,0,0,1-.35.84L265,173.11a1.22,1.22,0,0,1-.15.25.62.62,0,0,1-.2.16,1.25,1.25,0,0,1-.29.1,2.06,2.06,0,0,1-.43,0,2.38,2.38,0,0,1-.47,0,.54.54,0,0,1-.26-.11.26.26,0,0,1-.08-.19.85.85,0,0,1,0-.28l1.21-4.09V166.6a3.4,3.4,0,0,1,.08-.82,1,1,0,0,1,.25-.47.83.83,0,0,1,.43-.22,3.23,3.23,0,0,1,.63-.05,3,3,0,0,1,.6.05.8.8,0,0,1,.41.22,1,1,0,0,1,.24.47A3.56,3.56,0,0,1,267,166.6Z"/><path class="cls-3" d="M285,159.51a20.74,20.74,0,0,1-.4,4.27,10.38,10.38,0,0,1-1.18,3.2,5.64,5.64,0,0,1-1.94,2,5.14,5.14,0,0,1-2.68.69,5.57,5.57,0,0,1-2.62-.59,4.83,4.83,0,0,1-1.86-1.79,9.24,9.24,0,0,1-1.12-3.06,22.57,22.57,0,0,1-.37-4.39,20.09,20.09,0,0,1,.4-4.19,10.28,10.28,0,0,1,1.18-3.17,5.73,5.73,0,0,1,1.94-2,5.11,5.11,0,0,1,2.69-.7,5.53,5.53,0,0,1,2.58.58,4.81,4.81,0,0,1,1.87,1.78,9.31,9.31,0,0,1,1.13,3A21.33,21.33,0,0,1,285,159.51Zm-2.74.21a21.67,21.67,0,0,0-.16-2.75,7.9,7.9,0,0,0-.54-2.12,3.32,3.32,0,0,0-1-1.36,2.56,2.56,0,0,0-1.59-.48,2.42,2.42,0,0,0-1.61.54,3.89,3.89,0,0,0-1,1.45,7.84,7.84,0,0,0-.56,2.11,18.93,18.93,0,0,0-.16,2.56,22.56,22.56,0,0,0,.16,2.83,8.08,8.08,0,0,0,.54,2.14,3.16,3.16,0,0,0,1,1.36,2.63,2.63,0,0,0,1.6.47,2.45,2.45,0,0,0,1.61-.53,3.8,3.8,0,0,0,1-1.45,8.12,8.12,0,0,0,.56-2.14A19.5,19.5,0,0,0,282.23,159.72Z"/><path class="cls-3" d="M296.37,168.82a.84.84,0,0,1,0,.27.35.35,0,0,1-.19.19,1.32,1.32,0,0,1-.44.1q-.29,0-.79,0a5.87,5.87,0,0,1-.67,0,1.07,1.07,0,0,1-.39-.11.48.48,0,0,1-.2-.21,1.44,1.44,0,0,1-.1-.3l-1.15-4.29q-.21-.73-.41-1.29a4.6,4.6,0,0,0-.44-.94,1.77,1.77,0,0,0-.56-.57,1.39,1.39,0,0,0-.74-.19h-.82v7.31a.55.55,0,0,1-.06.27.47.47,0,0,1-.21.19,1.49,1.49,0,0,1-.4.12,4.53,4.53,0,0,1-1.27,0,1.5,1.5,0,0,1-.4-.12.44.44,0,0,1-.21-.19.59.59,0,0,1-.06-.27V151.36a1.55,1.55,0,0,1,.22-.94.67.67,0,0,1,.55-.29h3.33q.51,0,.84,0l.6.07a4.12,4.12,0,0,1,1.4.56,3.63,3.63,0,0,1,1.05,1,5,5,0,0,1,.66,1.53,8.12,8.12,0,0,1,.23,2,8.74,8.74,0,0,1-.16,1.76,5.6,5.6,0,0,1-.48,1.42,4.17,4.17,0,0,1-.79,1.08,3.86,3.86,0,0,1-1.06.74,3.12,3.12,0,0,1,.54.5,4,4,0,0,1,.48.72,7.94,7.94,0,0,1,.42,1q.2.54.39,1.22l1.08,3.78c.1.38.17.65.2.82A2.28,2.28,0,0,1,296.37,168.82Zm-3.37-13a4,4,0,0,0-.29-1.6,1.7,1.7,0,0,0-.94-.92,2.58,2.58,0,0,0-.45-.12,4.28,4.28,0,0,0-.7,0h-1.17v5.44h1.33a2.23,2.23,0,0,0,1-.2,1.89,1.89,0,0,0,.69-.56,2.51,2.51,0,0,0,.42-.87A4.24,4.24,0,0,0,293,155.8Z"/><path class="cls-3" d="M300.73,167.19a3.63,3.63,0,0,1-.32,1.85,1.65,1.65,0,0,1-2.31,0,3.41,3.41,0,0,1-.32-1.77,3.65,3.65,0,0,1,.32-1.87,1.31,1.31,0,0,1,1.17-.47,1.29,1.29,0,0,1,1.14.47A3.47,3.47,0,0,1,300.73,167.19Z"/></svg>